<?xml version="1.0" encoding="utf-8"?>
<!-- Generator: Adobe Illustrator 25.0.1, SVG Export Plug-In . SVG Version: 6.00 Build 0)  -->
<svg version="1.1" id="Layer_1" xmlns="http://www.w3.org/2000/svg" xmlns:xlink="http://www.w3.org/1999/xlink" x="0px" y="0px"
	 viewBox="0 0 999 275.8" style="enable-background:new 0 0 999 275.8;" xml:space="preserve">
<style type="text/css">
	.st0{fill:#FFFFFF;}
	.st1{clip-path:url(#SVGID_1_);fill:#FFFFFF;}
	.st2{clip-path:url(#SVGID_2_);fill:#FFFFFF;}
	.st3{clip-path:url(#SVGID_3_);fill:#FFFFFF;}
	.st4{clip-path:url(#SVGID_7_);fill:#FFFFFF;}
	.st5{clip-path:url(#SVGID_8_);fill:#FFFFFF;}
	.st6{clip-path:url(#SVGID_9_);fill:#FFFFFF;}
	.st7{clip-path:url(#SVGID_10_);fill:#FFFFFF;}
	.st8{clip-path:url(#SVGID_11_);fill:#FFFFFF;}
	.st9{clip-path:url(#SVGID_12_);fill:#FFFFFF;}
	.st10{clip-path:url(#SVGID_13_);fill:#FFFFFF;}
	.st11{clip-path:url(#SVGID_14_);fill:#FFFFFF;}
	.st12{clip-path:url(#SVGID_15_);fill:#FFFFFF;}
	.st13{clip-path:url(#SVGID_16_);fill:#FFFFFF;}
	.st14{clip-path:url(#SVGID_17_);fill:#FFFFFF;}
	.st15{clip-path:url(#SVGID_18_);fill:#FFFFFF;}
	.st16{clip-path:url(#SVGID_19_);fill:#FFFFFF;}
	.st17{clip-path:url(#SVGID_20_);fill:#FFFFFF;}
	.st18{clip-path:url(#SVGID_21_);fill:#FFFFFF;}
	.st19{clip-path:url(#SVGID_22_);fill:#FFFFFF;}
	.st20{clip-path:url(#SVGID_23_);fill:#FFFFFF;}
	.st21{clip-path:url(#SVGID_24_);fill:#FFFFFF;}
	.st22{clip-path:url(#SVGID_25_);fill:#FFFFFF;}
	.st23{clip-path:url(#SVGID_26_);fill:#FFFFFF;}
	.st24{clip-path:url(#SVGID_27_);fill:#FFFFFF;}
</style>
<g>
	<g>
		<path class="st0" d="M108.6,4C90.7,7.8,74,15,58.8,25.5C43.7,36,31,49.2,21.2,64.6C11.8,79.6,5.4,96,2.2,113.5
			c-6,33.1,0.4,67.1,17.9,95.7c-0.8,1.6-0.8,3.5,0.2,5c1.5,2.3,4.6,2.9,6.8,1.4c1.1-0.7,1.9-1.8,2.1-3.1c0.3-1.3,0-2.6-0.7-3.7
			c-1-1.5-2.7-2.3-4.5-2.2C7.2,179,1.1,146.2,6.9,114.3c6.3-34.7,25.7-64.8,54.7-84.9c29-20.1,64-27.7,98.7-21.4
			c34.7,6.3,64.8,25.7,84.9,54.7c20.1,29,27.7,64,21.4,98.7c-6.3,34.7-25.7,64.8-54.7,84.9c-26.7,18.5-59,26.5-91.2,22.5
			c-0.6-1.6-2.1-2.9-3.8-3.2c-1.3-0.2-2.6,0.1-3.7,0.9c-1.1,0.8-1.8,1.9-2,3.2c-0.2,1.3,0.1,2.6,0.9,3.7c0.8,1.1,1.9,1.8,3.2,2
			c0.3,0,0.5,0.1,0.8,0.1c1.5,0,3-0.7,3.9-2c5.6,0.7,11.2,1,16.8,1c27.6,0,54.7-8.4,77.7-24.4c15.2-10.5,27.8-23.7,37.6-39.1
			c9.5-14.9,15.9-31.3,19-48.8c3.2-17.5,2.9-35.1-0.7-52.4c-3.7-17.9-11-34.7-21.5-49.8c-10.5-15.2-23.7-27.8-39.1-37.6
			c-14.9-9.5-31.3-15.8-48.8-19C143.6,0.2,125.9,0.4,108.6,4z"/>
		<path class="st0" d="M232.6,55.5c-11.1-13-24.4-23.3-39.6-30.9c-14.6-7.3-30.4-11.6-46.7-12.9c-16.4-1.3-32.6,0.6-48.1,5.6
			c-16.1,5.1-30.9,13.4-43.8,24.5C41.4,53,31,66.3,23.5,81.4c-7.3,14.6-11.6,30.4-12.9,46.7c-1.3,16.4,0.6,32.6,5.6,48.1
			c5.1,16.1,13.4,30.9,24.5,43.8c2.1,2.5,4.4,4.9,6.7,7.2C57,237,68.1,244.9,80.3,251c14.6,7.3,30.4,11.6,46.7,12.9
			c3.2,0.2,6.5,0.4,9.7,0.4c27.5,0,54.2-8.9,76.2-25.6c1.6,0.7,3.6,0.4,5-0.7c1-0.8,1.7-2,1.8-3.3c0.1-1.3-0.3-2.6-1.1-3.6
			c-1.7-2.1-4.8-2.4-6.9-0.7c-1.4,1.1-2,2.9-1.7,4.7c-23.7,17.9-52.9,26.5-82.6,24.2C95,256.7,65.5,241.7,44.3,217
			c-21.2-24.7-31.4-56.1-29-88.5c2.5-32.4,17.4-61.9,42.1-83.1c24.7-21.2,56.1-31.4,88.5-29c32.4,2.5,61.9,17.4,83.1,42.1
			c19.3,22.6,29.7,51.2,29.3,80.9c-1.6,0.8-2.8,2.4-2.8,4.3c-0.1,2.7,2.1,5,4.8,5.1c2.7,0.1,5-2.1,5.1-4.8c0.1-1.8-0.8-3.4-2.3-4.3
			C263.6,108.9,252.8,79,232.6,55.5z"/>
		<path class="st0" d="M28.7,151.4c-0.2-1.3-0.9-2.5-1.9-3.2c-1.1-0.8-2.4-1.1-3.7-0.9c-1.3,0.2-2.5,0.9-3.2,1.9
			c-0.8,1.1-1.1,2.4-0.9,3.7c0.3,1.7,1.4,3.2,3,3.8c3.9,24.1,15.1,46,32.4,63.2c2.7,2.7,5.5,5.2,8.4,7.6
			c12.1,10,25.8,17.3,40.7,21.7c10.8,3.2,21.8,4.8,33,4.8c3.8,0,7.5-0.2,11.3-0.5c15-1.5,29.4-5.7,42.7-12.7
			c13.8-7.2,25.8-17,35.8-29.1c10-12.1,17.3-25.8,21.7-40.7c4.3-14.4,5.7-29.3,4.3-44.3c-1.5-15-5.7-29.4-12.7-42.7
			c-7.2-13.8-17-25.8-29.1-35.8c-12.1-10-25.8-17.3-40.7-21.7c-14.4-4.3-29.3-5.7-44.3-4.3c-28.1,2.7-54.1,15.5-73.3,35.9
			c-1.7-0.4-3.6,0.2-4.8,1.6c-1.8,2.1-1.6,5.2,0.5,6.9c2.1,1.8,5.2,1.6,6.9-0.5c1.2-1.4,1.5-3.2,0.9-4.9
			C74.1,41.7,99,29.5,125.9,26.9c29.6-2.9,58.6,6,81.6,24.9c23,18.9,37.2,45.7,40.1,75.3c2.9,29.6-6,58.6-24.9,81.6
			c-18.9,23-45.7,37.2-75.3,40.1c-29.6,2.9-58.6-6-81.6-24.9c-20.8-17.2-34.7-41.2-39.1-67.7C28.2,155.1,29,153.3,28.7,151.4z"/>
		<path class="st0" d="M134.6,246.2C134.6,246.2,134.6,246.2,134.6,246.2c1.8,0,3.4-1,4.3-2.5c25.4-0.5,49.8-10.2,68.7-27.2
			c21-18.9,33.4-44.9,34.9-73.2c1.5-28.3-8.1-55.4-27.1-76.4c-18.9-21-44.9-33.4-73.2-34.9c-28.3-1.5-55.4,8.1-76.4,27.1
			C44.7,78,32.3,104,30.8,132.3c-1.3,25.4,6.5,50.4,22.1,70.5c-0.6,1.6-0.3,3.5,0.8,4.9c0.8,1,2,1.7,3.3,1.8
			c1.3,0.1,2.6-0.2,3.6-1.1c2.1-1.7,2.4-4.8,0.7-6.9c-1.2-1.4-3.1-2.1-4.8-1.7c-14.8-19.1-22.3-42.9-21-67.2
			c1.4-27,13.3-51.8,33.3-69.9c20.1-18.1,46-27.3,73-25.9c27,1.4,51.8,13.3,69.9,33.3c18.1,20.1,27.3,46,25.9,73
			c-1.4,27-13.3,51.8-33.3,69.9c-18,16.2-41.2,25.4-65.4,26c-0.8-1.6-2.5-2.6-4.3-2.7c0,0,0,0,0,0c-2.7,0-4.9,2.2-4.9,4.9
			c0,1.3,0.5,2.6,1.4,3.5C132.1,245.7,133.3,246.2,134.6,246.2z"/>
		<path class="st0" d="M192.5,69.3c1,0.8,2.3,1.2,3.6,1c1.3-0.1,2.5-0.8,3.3-1.8c1.7-2.1,1.3-5.2-0.8-6.9c-1.4-1.1-3.3-1.4-4.9-0.7
			c-18.2-13.5-40.7-20.1-63.3-18.6C104.8,44,81.5,55.5,64.6,74.8C47.8,94,39.4,118.6,41.1,144.2c1.5,23.2,11.4,44.9,27.7,61.3
			c1.5,1.5,3.1,3,4.7,4.4c17.6,15.4,39.7,23.7,62.9,23.7c2.1,0,4.3-0.1,6.5-0.2c25.5-1.7,48.8-13.2,65.7-32.5
			c15-17.1,23.4-39,23.7-61.6c1.5-0.9,2.4-2.5,2.4-4.3c0-2.7-2.3-4.9-5-4.8c-1.3,0-2.5,0.6-3.5,1.5c-0.9,0.9-1.4,2.2-1.4,3.5
			c0,1.8,1.1,3.5,2.7,4.3c-0.4,21.5-8.3,42.2-22.5,58.4c-16,18.3-38.2,29.2-62.4,30.9c-24.3,1.6-47.7-6.3-66-22.3
			c-18.3-16-29.2-38.2-30.9-62.4c-1.6-24.3,6.3-47.7,22.3-66c16-18.3,38.2-29.2,62.4-30.9c21.5-1.4,42.8,4.8,60,17.6
			C190.4,66.3,191,68.2,192.5,69.3z"/>
		<g>
			<g>
				<g>
					<defs>
						<path id="SVGID_6_" d="M87.9,96.8c-9,0.8-16.7,4.4-23.1,10.9C58.4,114.2,55,122,54.5,131c-0.6,10.4,2.8,19.5,10,27.1
							c3.4,3.6,7.3,6.4,11.8,8.3c4.7,2,9.5,3.1,14.6,3.1c7.2,0,13.9-2,19.8-5.9c1.2-0.8,1.6-2.3,0.8-3.6l-4.2-6.2
							c-0.8-1.2-2.3-1.6-3.6-0.8c-3.9,2.5-8.1,3.7-12.8,3.7c-6.5,0-12.2-2.3-16.8-7c-4.7-4.7-7-10.3-6.9-17
							c0.2-6.1,2.2-11.4,6.4-15.9c4.2-4.5,9.3-7,15.4-7.5c5.3-0.5,10.3,0.8,14.6,3.7c0.8,0.5,1.6,0.5,2,0.3c0.5-0.2,1.1-0.3,1.6-1.1
							l4.2-6.2c0.8-1.2,0.5-2.8-0.8-3.6c-5.9-3.9-12.6-5.9-19.6-5.9C89.9,96.6,89,96.6,87.9,96.8"/>
					</defs>
					<use xlink:href="#SVGID_6_"  style="overflow:visible;fill:#FFFFFF;"/>
					<clipPath id="SVGID_1_">
						<use xlink:href="#SVGID_6_"  style="overflow:visible;"/>
					</clipPath>
					<polygon class="st1" points="53.9,96 113,96.6 112.2,170 53.1,169.4 					"/>
				</g>
			</g>
			<g>
				<g>
					<defs>
						<path id="SVGID_5_" d="M127.8,96.6c-1.6,0-2.6,1.1-2.6,2.6v67.5c0,1.6,1.1,2.6,2.6,2.6h7.5c1.6,0,2.6-1.1,2.6-2.6V99.3
							c0-1.6-1.1-2.6-2.6-2.6H127.8z"/>
					</defs>
					<use xlink:href="#SVGID_5_"  style="overflow:visible;fill:#FFFFFF;"/>
					<clipPath id="SVGID_2_">
						<use xlink:href="#SVGID_5_"  style="overflow:visible;"/>
					</clipPath>
					<polygon class="st2" points="125.2,96.5 138.7,96.6 138,169.5 124.6,169.4 					"/>
				</g>
			</g>
			<g>
				<g>
					<defs>
						<path id="SVGID_4_" d="M208.5,96.6c-1.1,0-2,0.5-2.6,1.2l-22.1,24.6l-22-24.6c-0.8-0.8-1.7-1.2-2.6-1.2h-2.8
							c-1.6,0-2.6,1.1-2.6,2.6v67.5c0,1.6,1.1,2.6,2.6,2.6h7.2c1.6,0,2.6-1.1,2.6-2.6v-45.6l15.9,17.8c0.5,0.6,1.1,0.9,1.9,0.9
							c0.5,0,1.2-0.2,2-0.9l15.9-17.8v45.8c0,1.6,1.1,2.6,2.6,2.6h7.2c1.6,0,2.6-1.1,2.6-2.6V99.3c0-1.6-1.1-2.6-2.6-2.6H208.5z"/>
					</defs>
					<use xlink:href="#SVGID_4_"  style="overflow:visible;fill:#FFFFFF;"/>
					<clipPath id="SVGID_3_">
						<use xlink:href="#SVGID_4_"  style="overflow:visible;"/>
					</clipPath>
					<polygon class="st3" points="153.7,96 214.6,96.6 213.8,170 152.9,169.4 					"/>
				</g>
			</g>
		</g>
	</g>
	<g>
		<g>
			<g>
				<g>
					<defs>
						<path id="SVGID_64_" d="M335.7,0.3c-10.1,0.9-18.6,4.9-25.7,12.1c-7.1,7.3-10.9,16-11.4,26c-0.7,11.6,3.1,21.7,11.1,30.2
							c3.8,4,8.2,7.1,13.2,9.2c5.2,2.3,10.6,3.5,16.3,3.5c8,0,15.4-2.3,22-6.6c1.4-0.9,1.7-2.6,0.9-4l-4.7-6.9
							c-0.9-1.4-2.6-1.7-4-0.9c-4.3,2.8-9,4.2-14.2,4.2c-7.3,0-13.5-2.6-18.7-7.8s-7.8-11.4-7.6-18.9c0.2-6.8,2.4-12.7,7.1-17.7
							c4.7-5,10.4-7.8,17.2-8.3c5.9-0.5,11.4,0.9,16.3,4.2c0.9,0.5,1.7,0.5,2.3,0.3c0.5-0.2,1.2-0.3,1.7-1.2l4.7-6.9
							c0.9-1.4,0.5-3.1-0.9-4c-6.6-4.3-14-6.6-21.9-6.6C337.9,0.2,336.9,0.2,335.7,0.3"/>
					</defs>
					<use xlink:href="#SVGID_64_"  style="overflow:visible;fill:#FFFFFF;"/>
					<clipPath id="SVGID_7_">
						<use xlink:href="#SVGID_64_"  style="overflow:visible;"/>
					</clipPath>
					<polygon class="st4" points="297.8,-0.5 363.6,0.2 362.7,81.9 297,81.2 					"/>
				</g>
			</g>
			<g>
				<g>
					<defs>
						<path id="SVGID_67_" d="M371.9,0.2c-1.7,0-2.9,1.2-2.9,2.9v75.3c0,1.7,1.2,2.9,2.9,2.9h42.5c1.7,0,2.9-1.2,2.9-2.9v-8.3
							c0-1.7-1.2-2.9-2.9-2.9h-31.2v-64c0-1.7-1.2-2.9-2.9-2.9H371.9z"/>
					</defs>
					<use xlink:href="#SVGID_67_"  style="overflow:visible;fill:#FFFFFF;"/>
					<clipPath id="SVGID_8_">
						<use xlink:href="#SVGID_67_"  style="overflow:visible;"/>
					</clipPath>
					<polygon class="st5" points="369,-0.3 418.2,0.2 417.3,81.7 368.1,81.2 					"/>
				</g>
			</g>
			<g>
				<g>
					<defs>
						<path id="SVGID_70_" d="M441.1,59.3c-5.2-5.2-7.6-11.3-7.6-18.6s2.6-13.4,7.6-18.6c5.2-5.2,11.3-7.6,18.6-7.6
							c7.3,0,13.4,2.6,18.6,7.6c5.2,5.2,7.6,11.3,7.6,18.6s-2.6,13.4-7.6,18.6c-5.2,5.2-11.3,7.6-18.6,7.6
							C452.4,66.9,446.3,64.5,441.1,59.3 M431.2,12.1c-7.8,7.8-11.8,17.5-11.8,28.6s4,20.6,11.8,28.6c7.8,7.8,17.5,11.8,28.6,11.8
							s20.6-4,28.6-11.8c7.8-7.8,11.8-17.5,11.8-28.6s-4-20.6-11.8-28.6c-7.8-7.8-17.5-11.8-28.6-11.8C448.6,0.2,439,4.2,431.2,12.1
							"/>
					</defs>
					<use xlink:href="#SVGID_70_"  style="overflow:visible;fill:#FFFFFF;"/>
					<clipPath id="SVGID_9_">
						<use xlink:href="#SVGID_70_"  style="overflow:visible;"/>
					</clipPath>
					<polygon class="st6" points="419.2,-0.7 501.1,0.2 500.2,82 418.4,81.2 					"/>
				</g>
			</g>
			<g>
				<g>
					<defs>
						<path id="SVGID_73_" d="M558.5,0.2c-1.7,0-2.9,1.2-2.9,2.9v48.4c0,4.3-1.6,8.2-4.9,11.3c-3.3,3.1-6.9,4.5-11.4,4.3
							c-4.2-0.2-7.6-1.7-10.6-4.9c-2.9-3.1-4.3-6.8-4.3-11.1v-48c0-1.7-1.2-2.9-2.9-2.9h-8.3c-1.7,0-2.9,1.2-2.9,2.9V51
							c0,8.3,2.9,15.4,8.8,21.3c5.7,5.9,12.7,8.8,20.6,8.8c0.2,0,0.3,0,0.5,0c8-0.2,14.9-3.1,20.6-8.8c5.7-5.7,8.5-12.7,8.5-20.8
							V3.1c0-1.7-1.2-2.9-2.9-2.9H558.5z"/>
					</defs>
					<use xlink:href="#SVGID_73_"  style="overflow:visible;fill:#FFFFFF;"/>
					<clipPath id="SVGID_10_">
						<use xlink:href="#SVGID_73_"  style="overflow:visible;"/>
					</clipPath>
					<polygon class="st7" points="510.3,-0.3 570.5,0.2 569.6,81.7 509.4,81.2 					"/>
				</g>
			</g>
			<g>
				<g>
					<defs>
						<path id="SVGID_76_" d="M597.7,14.2h13c7.5,0,13.5,2.6,18.7,7.6c5.2,5.2,7.8,11.3,7.8,18.7c0,7.3-2.6,13.4-7.8,18.7
							c-5.2,5.2-11.3,7.8-18.7,7.8h-13V14.2z M586.4,0c-1.7,0-2.9,1.2-2.9,2.9v75.3c0,1.7,1.2,2.9,2.9,2.9H610
							c11.1,0,20.8-3.8,28.8-11.6c8-7.6,12.1-17.2,12.5-28.3c0.2-11.3-3.6-21.2-11.6-29.1c-8-8-17.7-12.1-29-12.1
							C610.7,0,586.4,0,586.4,0z"/>
					</defs>
					<use xlink:href="#SVGID_76_"  style="overflow:visible;fill:#FFFFFF;"/>
					<clipPath id="SVGID_11_">
						<use xlink:href="#SVGID_76_"  style="overflow:visible;"/>
					</clipPath>
					<polygon class="st8" points="583.5,-0.7 652.3,0 651.5,81.9 582.6,81.2 					"/>
				</g>
			</g>
		</g>
		<g>
			<g>
				<g>
					<defs>
						<path id="SVGID_79_" d="M302.3,95.9c-1.7,0-2.9,1.2-2.9,2.9v75.1c0,1.7,1.2,2.9,2.9,2.9h8.3c1.7,0,2.9-1.2,2.9-2.9V98.8
							c0-1.7-1.2-2.9-2.9-2.9H302.3z"/>
					</defs>
					<use xlink:href="#SVGID_79_"  style="overflow:visible;fill:#FFFFFF;"/>
					<clipPath id="SVGID_12_">
						<use xlink:href="#SVGID_79_"  style="overflow:visible;"/>
					</clipPath>
					<polygon class="st9" points="299.4,95.7 314.5,95.9 313.6,177.1 298.7,176.9 					"/>
				</g>
			</g>
			<g>
				<g>
					<defs>
						<path id="SVGID_82_" d="M376.9,95.9c-1.7,0-2.9,1.2-2.9,2.9v47.9l-37.1-49.4c-0.5-0.9-1.4-1.2-2.4-1.2h-3.5
							c-1.7,0-2.9,1.2-2.9,2.9v75.3c0,1.7,1.2,2.9,2.9,2.9h8c1.7,0,2.9-1.2,2.9-2.9v-47.7l36.9,49.3c0.5,0.7,1.4,1,2.3,1h3.8
							c1.7,0,2.9-1.2,2.9-2.9V98.8c0-1.7-1.2-2.9-2.9-2.9H376.9z"/>
					</defs>
					<use xlink:href="#SVGID_82_"  style="overflow:visible;fill:#FFFFFF;"/>
					<clipPath id="SVGID_13_">
						<use xlink:href="#SVGID_82_"  style="overflow:visible;"/>
					</clipPath>
					<polygon class="st10" points="328.3,95.2 388.5,95.9 387.6,177.4 327.5,176.9 					"/>
				</g>
			</g>
			<g>
				<g>
					<defs>
						<path id="SVGID_85_" d="M405.3,95.9c-1.7,0-2.9,1.2-2.9,2.9v75.3c0,1.7,1.2,2.9,2.9,2.9h8.3c1.7,0,2.9-1.2,2.9-2.9v-30.7h26.7
							c1.7,0,2.9-1.2,2.9-2.9v-8.3c0-1.7-1.2-2.9-2.9-2.9h-26.7v-19.3h35.2c1.7,0,2.9-1.2,2.9-2.9v-8.3c0-1.7-1.2-2.9-2.9-2.9h-46.5
							V95.9z"/>
					</defs>
					<use xlink:href="#SVGID_85_"  style="overflow:visible;fill:#FFFFFF;"/>
					<clipPath id="SVGID_14_">
						<use xlink:href="#SVGID_85_"  style="overflow:visible;"/>
					</clipPath>
					<polygon class="st11" points="402.4,95.4 455.5,95.9 454.6,177.4 401.5,176.9 					"/>
				</g>
			</g>
			<g>
				<g>
					<defs>
						<path id="SVGID_88_" d="M476.3,155c-5.2-5.2-7.6-11.3-7.6-18.6s2.6-13.4,7.6-18.6c5.2-5.2,11.3-7.6,18.6-7.6
							s13.4,2.6,18.6,7.6c5.2,5.2,7.6,11.3,7.6,18.6s-2.6,13.4-7.6,18.6c-5.2,5.2-11.3,7.6-18.6,7.6S481.3,160.2,476.3,155
							 M466.2,107.9c-7.8,7.8-11.8,17.5-11.8,28.6c0,11.1,4,20.6,11.8,28.6c7.8,7.8,17.5,11.8,28.6,11.8c11.1,0,20.6-4,28.6-11.8
							c7.8-7.8,11.8-17.5,11.8-28.6c0-11.1-4-20.6-11.8-28.6c-7.8-7.8-17.5-11.8-28.6-11.8C483.7,96.1,474,99.9,466.2,107.9"/>
					</defs>
					<use xlink:href="#SVGID_88_"  style="overflow:visible;fill:#FFFFFF;"/>
					<clipPath id="SVGID_15_">
						<use xlink:href="#SVGID_88_"  style="overflow:visible;"/>
					</clipPath>
					<polygon class="st12" points="454.4,95 536.1,95.9 535.2,177.8 453.5,176.9 					"/>
				</g>
			</g>
			<g>
				<g>
					<defs>
						<path id="SVGID_91_" d="M560.7,109.9h16.8c2.8,0,5,0.9,6.9,2.8c1.9,1.9,2.9,4.2,2.9,6.9s-0.9,5-2.9,6.9
							c-1.9,1.9-4.2,2.9-6.9,2.9h-16.8V109.9z M549.5,95.9c-1.7,0-2.9,1.2-2.9,2.9v74.9c0,1.7,1.2,2.9,2.9,2.9h8.3
							c1.7,0,2.9-1.2,2.9-2.9v-30.2h9.7l17.3,31.6c0.5,1,1.4,1.7,2.6,1.7h9.5c1,0,2.1-0.5,2.4-1.4c0.5-0.9,0.5-1.9,0.2-2.8
							l-16.8-30.5c4-1.4,7.5-3.8,10.4-7.1c3.5-4.2,5.4-9,5.5-14.6c0.2-6.8-2.1-12.5-6.8-17.3c-4.7-4.9-10.4-7.3-17.2-7.3
							C577.7,95.9,549.5,95.9,549.5,95.9z"/>
					</defs>
					<use xlink:href="#SVGID_91_"  style="overflow:visible;fill:#FFFFFF;"/>
					<clipPath id="SVGID_16_">
						<use xlink:href="#SVGID_91_"  style="overflow:visible;"/>
					</clipPath>
					<polygon class="st13" points="546.7,95.4 603.6,95.9 602.7,177.4 545.8,176.9 					"/>
				</g>
			</g>
			<g>
				<g>
					<defs>
						<path id="SVGID_94_" d="M672.8,95.9c-1.2,0-2.3,0.5-2.9,1.4l-24.5,27.4l-24.5-27.4c-0.9-0.9-1.9-1.4-2.9-1.4h-3.1
							c-1.7,0-2.9,1.2-2.9,2.9v75.1c0,1.7,1.2,2.9,2.9,2.9h8c1.7,0,2.9-1.2,2.9-2.9v-50.8l17.7,19.8c0.5,0.7,1.2,1,2.1,1
							c0.5,0,1.4-0.2,2.3-1l17.7-19.8v51c0,1.7,1.2,2.9,2.9,2.9h8c1.7,0,2.9-1.2,2.9-2.9V98.8c0-1.7-1.2-2.9-2.9-2.9H672.8z"/>
					</defs>
					<use xlink:href="#SVGID_94_"  style="overflow:visible;fill:#FFFFFF;"/>
					<clipPath id="SVGID_17_">
						<use xlink:href="#SVGID_94_"  style="overflow:visible;"/>
					</clipPath>
					<polygon class="st14" points="611.9,95.2 679.7,95.9 678.8,177.6 611,176.9 					"/>
				</g>
			</g>
			<g>
				<g>
					<defs>
						<path id="SVGID_97_" d="M723.1,117.9l6.4,15.3h-12.7L723.1,117.9z M719.4,95.7c-1,0-2.1,0.7-2.6,1.7l-31.2,75.1
							c-0.5,0.9-0.3,1.9,0.2,2.8c0.5,0.9,1.4,1.2,2.4,1.2h8.5c1.2,0,2.3-0.7,2.6-1.7l11.6-28.1H735l11.6,28.1
							c0.3,1.2,1.4,1.9,2.8,1.9h8.5c1,0,1.9-0.5,2.4-1.2c0.5-0.9,0.7-1.9,0.2-2.8l-31.2-75.3c-0.3-1.2-1.4-1.9-2.8-1.9h-7.1V95.7z"
							/>
					</defs>
					<use xlink:href="#SVGID_97_"  style="overflow:visible;fill:#FFFFFF;"/>
					<clipPath id="SVGID_18_">
						<use xlink:href="#SVGID_97_"  style="overflow:visible;"/>
					</clipPath>
					<polygon class="st15" points="685.1,95 761.9,95.7 761,177.6 684.2,176.9 					"/>
				</g>
			</g>
			<g>
				<g>
					<defs>
						<path id="SVGID_100_" d="M764.2,95.9c-1.7,0-2.9,1.2-2.9,2.9v8.3c0,1.7,1.2,2.9,2.9,2.9H782v64c0,1.7,1.2,2.9,2.9,2.9h8.3
							c1.7,0,2.9-1.2,2.9-2.9v-64h17.9c1.7,0,2.9-1.2,2.9-2.9v-8.3c0-1.7-1.2-2.9-2.9-2.9H764.2z"/>
					</defs>
					<use xlink:href="#SVGID_100_"  style="overflow:visible;fill:#FFFFFF;"/>
					<clipPath id="SVGID_19_">
						<use xlink:href="#SVGID_100_"  style="overflow:visible;"/>
					</clipPath>
					<polygon class="st16" points="761.2,95.4 817.8,95.9 816.9,177.4 760.4,176.9 					"/>
				</g>
			</g>
			<g>
				<g>
					<defs>
						<path id="SVGID_103_" d="M826.8,95.9c-1.7,0-2.9,1.2-2.9,2.9v75.1c0,1.7,1.2,2.9,2.9,2.9h8.3c1.7,0,2.9-1.2,2.9-2.9V98.8
							c0-1.7-1.2-2.9-2.9-2.9H826.8z"/>
					</defs>
					<use xlink:href="#SVGID_103_"  style="overflow:visible;fill:#FFFFFF;"/>
					<clipPath id="SVGID_20_">
						<use xlink:href="#SVGID_103_"  style="overflow:visible;"/>
					</clipPath>
					<polygon class="st17" points="823.8,95.7 838.9,95.9 838.1,177.1 823.1,176.9 					"/>
				</g>
			</g>
			<g>
				<g>
					<defs>
						<path id="SVGID_106_" d="M869.1,155c-5.2-5.2-7.6-11.3-7.6-18.6s2.6-13.4,7.6-18.6c5.2-5.2,11.3-7.6,18.6-7.6
							c7.3,0,13.4,2.6,18.6,7.6c5.2,5.2,7.6,11.3,7.6,18.6s-2.6,13.4-7.6,18.6c-5.2,5.2-11.3,7.6-18.6,7.6
							C880.4,162.7,874.3,160.2,869.1,155 M859,107.9c-7.8,7.8-11.8,17.5-11.8,28.6c0,11.1,4,20.6,11.8,28.6
							c7.8,7.8,17.5,11.8,28.6,11.8s20.6-4,28.6-11.8c7.8-7.8,11.8-17.5,11.8-28.6c0-11.1-4-20.6-11.8-28.6
							c-7.8-7.8-17.5-11.8-28.6-11.8C876.6,95.9,867,99.9,859,107.9"/>
					</defs>
					<use xlink:href="#SVGID_106_"  style="overflow:visible;fill:#FFFFFF;"/>
					<clipPath id="SVGID_21_">
						<use xlink:href="#SVGID_106_"  style="overflow:visible;"/>
					</clipPath>
					<polygon class="st18" points="847.2,95 928.9,95.9 928.1,177.8 846.4,176.9 					"/>
				</g>
			</g>
			<g>
				<g>
					<defs>
						<path id="SVGID_109_" d="M988.1,95.9c-1.7,0-2.9,1.2-2.9,2.9v47.9L948,97.3c-0.5-0.9-1.4-1.2-2.4-1.2h-3.5
							c-1.7,0-2.9,1.2-2.9,2.9v75.3c0,1.7,1.2,2.9,2.9,2.9h8c1.7,0,2.9-1.2,2.9-2.9v-47.7l36.9,49.3c0.5,0.7,1.4,1,2.3,1h3.8
							c1.7,0,2.9-1.2,2.9-2.9V98.8c0-1.7-1.2-2.9-2.9-2.9H988.1z"/>
					</defs>
					<use xlink:href="#SVGID_109_"  style="overflow:visible;fill:#FFFFFF;"/>
					<clipPath id="SVGID_22_">
						<use xlink:href="#SVGID_109_"  style="overflow:visible;"/>
					</clipPath>
					<polygon class="st19" points="939.5,95.2 999.9,95.9 999,177.4 938.6,176.9 					"/>
				</g>
			</g>
		</g>
		<g>
			<g>
				<g>
					<defs>
						<path id="SVGID_112_" d="M359.5,194.6c-1.2,0-2.3,0.5-2.9,1.4l-24.6,27.4L307.5,196c-0.9-0.9-1.9-1.4-2.9-1.4h-3.1
							c-1.7,0-2.9,1.2-2.9,2.9v75.1c0,1.7,1.2,2.9,2.9,2.9h8c1.7,0,2.9-1.2,2.9-2.9v-50.8l17.7,19.8c0.5,0.7,1.2,1,2.1,1
							c0.5,0,1.4-0.2,2.3-1l17.7-19.8v51c0,1.7,1.2,2.9,2.9,2.9h8c1.7,0,2.9-1.2,2.9-2.9v-75.3c0-1.7-1.2-2.9-2.9-2.9H359.5z"/>
					</defs>
					<use xlink:href="#SVGID_112_"  style="overflow:visible;fill:#FFFFFF;"/>
					<clipPath id="SVGID_23_">
						<use xlink:href="#SVGID_112_"  style="overflow:visible;"/>
					</clipPath>
					<polygon class="st20" points="298.5,193.9 366.3,194.6 365.4,276.3 297.6,275.6 					"/>
				</g>
			</g>
			<g>
				<g>
					<defs>
						<path id="SVGID_115_" d="M396.4,253.8c-5.2-5.2-7.6-11.3-7.6-18.6s2.6-13.4,7.6-18.6c5.2-5.2,11.3-7.6,18.6-7.6
							s13.4,2.6,18.6,7.6c5.2,5.2,7.6,11.3,7.6,18.6s-2.6,13.4-7.6,18.6c-5.2,5.2-11.3,7.6-18.6,7.6S401.7,259,396.4,253.8
							 M386.6,206.6c-7.8,7.8-11.8,17.5-11.8,28.6c0,11.1,4,20.6,11.8,28.6c7.8,7.8,17.5,11.8,28.6,11.8s20.6-4,28.6-11.8
							c7.8-7.8,11.8-17.5,11.8-28.6c0-11.1-4-20.6-11.8-28.6c-7.8-7.8-17.5-11.8-28.6-11.8C404.1,194.6,394.4,198.6,386.6,206.6"/>
					</defs>
					<use xlink:href="#SVGID_115_"  style="overflow:visible;fill:#FFFFFF;"/>
					<clipPath id="SVGID_24_">
						<use xlink:href="#SVGID_115_"  style="overflow:visible;"/>
					</clipPath>
					<polygon class="st21" points="374.6,193.8 456.5,194.6 455.6,276.5 373.7,275.6 					"/>
				</g>
			</g>
			<g>
				<g>
					<defs>
						<path id="SVGID_118_" d="M481.1,208.7h13c7.5,0,13.5,2.6,18.7,7.6c5.2,5.2,7.8,11.3,7.8,18.7c0,7.5-2.6,13.4-7.8,18.7
							c-5.2,5.2-11.3,7.8-18.7,7.8h-13V208.7z M469.8,194.5c-1.7,0-2.9,1.2-2.9,2.9v75.3c0,1.7,1.2,2.9,2.9,2.9h23.6
							c11.1,0,20.8-3.8,28.8-11.6c8-7.6,12.1-17.2,12.5-28.3c0.2-11.3-3.6-21.2-11.6-29.1c-8-8-17.7-12.1-29-12.1
							C494.1,194.5,469.8,194.5,469.8,194.5z"/>
					</defs>
					<use xlink:href="#SVGID_118_"  style="overflow:visible;fill:#FFFFFF;"/>
					<clipPath id="SVGID_25_">
						<use xlink:href="#SVGID_118_"  style="overflow:visible;"/>
					</clipPath>
					<polygon class="st22" points="466.9,193.8 535.7,194.5 534.9,276.3 466,275.6 					"/>
				</g>
			</g>
			<g>
				<g>
					<defs>
						<path id="SVGID_121_" d="M549.1,194.6c-1.7,0-2.9,1.2-2.9,2.9v75.1c0,1.7,1.2,2.9,2.9,2.9h49.8c1.7,0,2.9-1.2,2.9-2.9v-8.3
							c0-1.7-1.2-2.9-2.9-2.9h-38.5v-19.3h27.2c1.7,0,2.9-1.2,2.9-2.9v-8.3c0-1.7-1.2-2.9-2.9-2.9h-27.2v-19.1h38.5
							c1.7,0,2.9-1.2,2.9-2.9v-8.3c0-1.7-1.2-2.9-2.9-2.9H549.1z"/>
					</defs>
					<use xlink:href="#SVGID_121_"  style="overflow:visible;fill:#FFFFFF;"/>
					<clipPath id="SVGID_26_">
						<use xlink:href="#SVGID_121_"  style="overflow:visible;"/>
					</clipPath>
					<polygon class="st23" points="546.3,194.1 602.7,194.6 601.8,276.1 545.4,275.6 					"/>
				</g>
			</g>
			<g>
				<g>
					<defs>
						<path id="SVGID_124_" d="M613.1,194.6c-1.7,0-2.9,1.2-2.9,2.9v75.3c0,1.7,1.2,2.9,2.9,2.9h42.5c1.7,0,2.9-1.2,2.9-2.9v-8.3
							c0-1.7-1.2-2.9-2.9-2.9h-31.2v-64c0-1.7-1.2-2.9-2.9-2.9H613.1z"/>
					</defs>
					<use xlink:href="#SVGID_124_"  style="overflow:visible;fill:#FFFFFF;"/>
					<clipPath id="SVGID_27_">
						<use xlink:href="#SVGID_124_"  style="overflow:visible;"/>
					</clipPath>
					<polygon class="st24" points="610.3,194.1 659.4,194.6 658.5,276.1 609.4,275.6 					"/>
				</g>
			</g>
		</g>
	</g>
</g>
</svg>
